<mxfile host="Electron" agent="Mozilla/5.0 (Windows NT 10.0; Win64; x64) AppleWebKit/537.36 (KHTML, like Gecko) draw.io/27.0.9 Chrome/134.0.6998.205 Electron/35.4.0 Safari/537.36" version="27.0.9">
  <diagram name="AWS Backup Tagging Architecture" id="aws-backup-tagging">
    <mxGraphModel dx="1426" dy="873" grid="0" gridSize="10" guides="1" tooltips="1" connect="1" arrows="1" fold="1" page="1" pageScale="1" pageWidth="1169" pageHeight="827" math="0" shadow="0">
      <root>
        <mxCell id="0" />
        <mxCell id="1" parent="0" />
        <mxCell id="aws-cloud" value="" style="sketch=0;outlineConnect=0;gradientColor=none;html=1;whiteSpace=wrap;fontSize=12;fontStyle=1;shape=mxgraph.aws4.group;grIcon=mxgraph.aws4.group_aws_cloud_alt;strokeColor=#232F3E;fillColor=none;verticalAlign=top;align=left;spacingLeft=30;fontColor=#232F3E;dashed=0;fontFamily=Verdana;" parent="1" vertex="1">
          <mxGeometry x="16" y="72" width="1135" height="739" as="geometry" />
        </mxCell>
        <mxCell id="aws-backup" value="AWS Backup" style="sketch=0;points=[[0,0,0],[0.25,0,0],[0.5,0,0],[0.75,0,0],[1,0,0],[0,1,0],[0.25,1,0],[0.5,1,0],[0.75,1,0],[1,1,0],[0,0.25,0],[0,0.5,0],[0,0.75,0],[1,0.25,0],[1,0.5,0],[1,0.75,0]];outlineConnect=0;fontColor=#232F3E;gradientColor=#F78E04;gradientDirection=north;fillColor=#D05C17;strokeColor=#ffffff;dashed=0;verticalLabelPosition=bottom;verticalAlign=top;align=center;html=1;fontSize=12;fontStyle=1;aspect=fixed;shape=mxgraph.aws4.resourceIcon;resIcon=mxgraph.aws4.backup;fontFamily=Verdana;" parent="1" vertex="1">
          <mxGeometry x="49" y="147" width="78" height="78" as="geometry" />
        </mxCell>
        <mxCell id="eventbridge" value="Amazon EventBridge" style="sketch=0;points=[[0,0,0],[0.25,0,0],[0.5,0,0],[0.75,0,0],[1,0,0],[0,1,0],[0.25,1,0],[0.5,1,0],[0.75,1,0],[1,1,0],[0,0.25,0],[0,0.5,0],[0,0.75,0],[1,0.25,0],[1,0.5,0],[1,0.75,0]];outlineConnect=0;fontColor=#232F3E;gradientColor=#FF4F8B;gradientDirection=north;fillColor=#BC1356;strokeColor=#ffffff;dashed=0;verticalLabelPosition=bottom;verticalAlign=top;align=center;html=1;fontSize=12;fontStyle=1;aspect=fixed;shape=mxgraph.aws4.resourceIcon;resIcon=mxgraph.aws4.eventbridge;fontFamily=Verdana;" parent="1" vertex="1">
          <mxGeometry x="330" y="251" width="78" height="78" as="geometry" />
        </mxCell>
        <mxCell id="cloudwatch-events" value="CloudWatch Events&#xa;(Scheduler)" style="sketch=0;points=[[0,0,0],[0.25,0,0],[0.5,0,0],[0.75,0,0],[1,0,0],[0,1,0],[0.25,1,0],[0.5,1,0],[0.75,1,0],[1,1,0],[0,0.25,0],[0,0.5,0],[0,0.75,0],[1,0.25,0],[1,0.5,0],[1,0.75,0]];outlineConnect=0;fontColor=#232F3E;gradientColor=#FF4F8B;gradientDirection=north;fillColor=#BC1356;strokeColor=#ffffff;dashed=0;verticalLabelPosition=bottom;verticalAlign=top;align=center;html=1;fontSize=12;fontStyle=1;aspect=fixed;shape=mxgraph.aws4.resourceIcon;resIcon=mxgraph.aws4.cloudwatch_2;fontFamily=Verdana;" parent="1" vertex="1">
          <mxGeometry x="68" y="364" width="78" height="78" as="geometry" />
        </mxCell>
        <mxCell id="lambda" value="&lt;span&gt;BackupAwareTagger&lt;br&gt;Lambda Function&lt;/span&gt;" style="sketch=0;points=[[0,0,0],[0.25,0,0],[0.5,0,0],[0.75,0,0],[1,0,0],[0,1,0],[0.25,1,0],[0.5,1,0],[0.75,1,0],[1,1,0],[0,0.25,0],[0,0.5,0],[0,0.75,0],[1,0.25,0],[1,0.5,0],[1,0.75,0]];outlineConnect=0;fontColor=#232F3E;gradientColor=#F78E04;gradientDirection=north;fillColor=#D05C17;strokeColor=#ffffff;dashed=0;verticalLabelPosition=bottom;verticalAlign=top;align=center;html=1;fontSize=12;fontStyle=1;aspect=fixed;shape=mxgraph.aws4.resourceIcon;resIcon=mxgraph.aws4.lambda;fontFamily=Verdana;" parent="1" vertex="1">
          <mxGeometry x="679" y="248" width="78" height="78" as="geometry" />
        </mxCell>
        <mxCell id="iam-role" value="IAM Role" style="sketch=0;points=[[0,0,0],[0.25,0,0],[0.5,0,0],[0.75,0,0],[1,0,0],[0,1,0],[0.25,1,0],[0.5,1,0],[0.75,1,0],[1,1,0],[0,0.25,0],[0,0.5,0],[0,0.75,0],[1,0.25,0],[1,0.5,0],[1,0.75,0]];outlineConnect=0;fontColor=#232F3E;gradientColor=#F54749;gradientDirection=north;fillColor=#C7131F;strokeColor=#ffffff;dashed=0;verticalLabelPosition=bottom;verticalAlign=top;align=center;html=1;fontSize=12;fontStyle=1;aspect=fixed;shape=mxgraph.aws4.resourceIcon;resIcon=mxgraph.aws4.identity_and_access_management;fontFamily=Verdana;" parent="1" vertex="1">
          <mxGeometry x="679" y="502" width="78" height="78" as="geometry" />
        </mxCell>
        <mxCell id="ec2-snapshots" value="EBS Snapshots" style="sketch=0;points=[[0,0,0],[0.25,0,0],[0.5,0,0],[0.75,0,0],[1,0,0],[0,1,0],[0.25,1,0],[0.5,1,0],[0.75,1,0],[1,1,0],[0,0.25,0],[0,0.5,0],[0,0.75,0],[1,0.25,0],[1,0.5,0],[1,0.75,0]];outlineConnect=0;fontColor=#232F3E;gradientColor=#F78E04;gradientDirection=north;fillColor=#D05C17;strokeColor=#ffffff;dashed=0;verticalLabelPosition=bottom;verticalAlign=top;align=center;html=1;fontSize=12;fontStyle=1;aspect=fixed;shape=mxgraph.aws4.resourceIcon;resIcon=mxgraph.aws4.snapshot;fontFamily=Verdana;" parent="1" vertex="1">
          <mxGeometry x="958" y="93" width="78" height="78" as="geometry" />
        </mxCell>
        <mxCell id="amis" value="AMIs" style="sketch=0;points=[[0,0,0],[0.25,0,0],[0.5,0,0],[0.75,0,0],[1,0,0],[0,1,0],[0.25,1,0],[0.5,1,0],[0.75,1,0],[1,1,0],[0,0.25,0],[0,0.5,0],[0,0.75,0],[1,0.25,0],[1,0.5,0],[1,0.75,0]];outlineConnect=0;fontColor=#232F3E;gradientColor=#F78E04;gradientDirection=north;fillColor=#D05C17;strokeColor=#ffffff;dashed=0;verticalLabelPosition=bottom;verticalAlign=top;align=center;html=1;fontSize=12;fontStyle=1;aspect=fixed;shape=mxgraph.aws4.resourceIcon;resIcon=mxgraph.aws4.ami;fontFamily=Verdana;" parent="1" vertex="1">
          <mxGeometry x="954" y="396" width="78" height="78" as="geometry" />
        </mxCell>
        <mxCell id="cloudwatch-logs" value="CloudWatch Logs" style="sketch=0;points=[[0,0,0],[0.25,0,0],[0.5,0,0],[0.75,0,0],[1,0,0],[0,1,0],[0.25,1,0],[0.5,1,0],[0.75,1,0],[1,1,0],[0,0.25,0],[0,0.5,0],[0,0.75,0],[1,0.25,0],[1,0.5,0],[1,0.75,0]];outlineConnect=0;fontColor=#232F3E;gradientColor=#FF4F8B;gradientDirection=north;fillColor=#BC1356;strokeColor=#ffffff;dashed=0;verticalLabelPosition=bottom;verticalAlign=top;align=center;html=1;fontSize=12;fontStyle=1;aspect=fixed;shape=mxgraph.aws4.resourceIcon;resIcon=mxgraph.aws4.cloudwatch_2;fontFamily=Verdana;" parent="1" vertex="1">
          <mxGeometry x="663" y="88" width="78" height="78" as="geometry" />
        </mxCell>
        <mxCell id="flow1" value="Backup Job&#xa;Completion Event" style="edgeStyle=orthogonalEdgeStyle;rounded=0;orthogonalLoop=1;jettySize=auto;html=1;strokeColor=#FF6D01;strokeWidth=3;fontColor=#232F3E;labelBackgroundColor=#ffffff;flowAnimation=1;fontStyle=1;fontFamily=Verdana;" parent="1" source="aws-backup" target="eventbridge" edge="1">
          <mxGeometry relative="1" as="geometry" />
        </mxCell>
        <mxCell id="flow2" value="Daily Schedule&#xa;(rate: 1 day)" style="edgeStyle=orthogonalEdgeStyle;rounded=0;orthogonalLoop=1;jettySize=auto;html=1;strokeColor=#FF6D01;strokeWidth=3;fontColor=#232F3E;labelBackgroundColor=#ffffff;flowAnimation=1;fontStyle=1;fontFamily=Verdana;" parent="1" source="cloudwatch-events" target="eventbridge" edge="1">
          <mxGeometry relative="1" as="geometry">
            <Array as="points">
              <mxPoint x="369" y="403" />
            </Array>
          </mxGeometry>
        </mxCell>
        <mxCell id="flow3" value="Trigger Lambda" style="edgeStyle=orthogonalEdgeStyle;rounded=0;orthogonalLoop=1;jettySize=auto;html=1;strokeColor=#FF6D01;strokeWidth=3;fontColor=#232F3E;labelBackgroundColor=#ffffff;flowAnimation=1;fontStyle=1;fontFamily=Verdana;" parent="1" source="eventbridge" target="lambda" edge="1">
          <mxGeometry relative="1" as="geometry">
            <Array as="points">
              <mxPoint x="389" y="285" />
            </Array>
          </mxGeometry>
        </mxCell>
        <mxCell id="flow4" value="Tag Resources" style="edgeStyle=orthogonalEdgeStyle;rounded=0;orthogonalLoop=1;jettySize=auto;html=1;strokeColor=#232F3E;strokeWidth=3;fontColor=#232F3E;labelBackgroundColor=#ffffff;flowAnimation=1;fontStyle=1;fontFamily=Verdana;" parent="1" source="lambda" target="ec2-snapshots" edge="1">
          <mxGeometry relative="1" as="geometry" />
        </mxCell>
        <mxCell id="flow5" value="Tag Resources" style="edgeStyle=orthogonalEdgeStyle;rounded=0;orthogonalLoop=1;jettySize=auto;html=1;strokeColor=#232F3E;strokeWidth=3;fontColor=#232F3E;labelBackgroundColor=#ffffff;flowAnimation=1;fontStyle=1;fontFamily=Verdana;" parent="1" source="lambda" target="amis" edge="1">
          <mxGeometry relative="1" as="geometry">
            <Array as="points">
              <mxPoint x="999" y="308" />
            </Array>
          </mxGeometry>
        </mxCell>
        <mxCell id="flow6" value="Logs" style="edgeStyle=orthogonalEdgeStyle;rounded=0;orthogonalLoop=1;jettySize=auto;html=1;strokeColor=#9AC7BF;strokeWidth=2;fontColor=#232F3E;labelBackgroundColor=#ffffff;dashed=1;flowAnimation=1;fontStyle=1;fontFamily=Verdana;" parent="1" source="lambda" target="cloudwatch-logs" edge="1">
          <mxGeometry relative="1" as="geometry">
            <Array as="points">
              <mxPoint x="735" y="119" />
            </Array>
          </mxGeometry>
        </mxCell>
        <mxCell id="flow7" value="Permissions" style="edgeStyle=orthogonalEdgeStyle;rounded=0;orthogonalLoop=1;jettySize=auto;html=1;strokeColor=#9AC7BF;strokeWidth=2;fontColor=#232F3E;labelBackgroundColor=#ffffff;dashed=1;flowAnimation=1;fontStyle=1;fontFamily=Verdana;" parent="1" source="iam-role" target="lambda" edge="1">
          <mxGeometry relative="1" as="geometry" />
        </mxCell>
        <mxCell id="title" value="AWS Backup Resource Tagging Architecture" style="text;html=1;strokeColor=none;fillColor=none;align=center;verticalAlign=middle;whiteSpace=wrap;rounded=0;fontSize=20;fontStyle=1;fontColor=#232F3E;fontFamily=Verdana;" parent="1" vertex="1">
          <mxGeometry x="350" y="19" width="400" height="30" as="geometry" />
        </mxCell>
        <mxCell id="process-title" value="Process Flow" style="text;html=1;strokeColor=none;fillColor=none;align=center;verticalAlign=middle;whiteSpace=wrap;rounded=0;fontSize=16;fontStyle=1;fontColor=#232F3E;fontFamily=Verdana;" parent="1" vertex="1">
          <mxGeometry x="933" y="648" width="120" height="30" as="geometry" />
        </mxCell>
        <mxCell id="7H_VCyAWmfOhiCKqPhkO-1" value="" style="group;fontStyle=1;fontFamily=Verdana;" vertex="1" connectable="0" parent="1">
          <mxGeometry x="27" y="536" width="338" height="100" as="geometry" />
        </mxCell>
        <mxCell id="step1" value="1. AWS Backup creates snapshots/AMIs" style="text;html=1;strokeColor=none;fillColor=none;align=left;verticalAlign=middle;whiteSpace=wrap;rounded=0;fontSize=11;fontColor=#232F3E;fontStyle=1;fontFamily=Verdana;" parent="7H_VCyAWmfOhiCKqPhkO-1" vertex="1">
          <mxGeometry width="301.7857142857143" height="20" as="geometry" />
        </mxCell>
        <mxCell id="step2" value="2. Backup completion event sent to EventBridge" style="text;html=1;strokeColor=none;fillColor=none;align=left;verticalAlign=middle;whiteSpace=wrap;rounded=0;fontSize=11;fontColor=#232F3E;fontStyle=1;fontFamily=Verdana;" parent="7H_VCyAWmfOhiCKqPhkO-1" vertex="1">
          <mxGeometry y="20" width="325.9285714285714" height="20" as="geometry" />
        </mxCell>
        <mxCell id="step3" value="3. EventBridge triggers Lambda function" style="text;html=1;strokeColor=none;fillColor=none;align=left;verticalAlign=middle;whiteSpace=wrap;rounded=0;fontSize=11;fontColor=#232F3E;fontStyle=1;fontFamily=Verdana;" parent="7H_VCyAWmfOhiCKqPhkO-1" vertex="1">
          <mxGeometry y="40" width="289.7142857142857" height="20" as="geometry" />
        </mxCell>
        <mxCell id="step4" value="4. Lambda tags resources with retention metadata" style="text;html=1;strokeColor=none;fillColor=none;align=left;verticalAlign=middle;whiteSpace=wrap;rounded=0;fontSize=11;fontColor=#232F3E;fontStyle=1;fontFamily=Verdana;" parent="7H_VCyAWmfOhiCKqPhkO-1" vertex="1">
          <mxGeometry y="60" width="338" height="20" as="geometry" />
        </mxCell>
        <mxCell id="step5" value="5. Daily scheduled fallback for all resources" style="text;html=1;strokeColor=none;fillColor=none;align=left;verticalAlign=middle;whiteSpace=wrap;rounded=0;fontSize=11;fontColor=#232F3E;fontStyle=1;fontFamily=Verdana;" parent="7H_VCyAWmfOhiCKqPhkO-1" vertex="1">
          <mxGeometry y="80" width="313.85714285714283" height="20" as="geometry" />
        </mxCell>
        <mxCell id="7H_VCyAWmfOhiCKqPhkO-2" value="" style="group;fontStyle=1;fontFamily=Verdana;" vertex="1" connectable="0" parent="1">
          <mxGeometry x="827" y="687" width="320" height="120" as="geometry" />
        </mxCell>
        <mxCell id="tags-box" value="" style="rounded=1;whiteSpace=wrap;html=1;strokeColor=#232F3E;fillColor=#E6F7FF;fontStyle=1;fontFamily=Verdana;" parent="7H_VCyAWmfOhiCKqPhkO-2" vertex="1">
          <mxGeometry width="320" height="120" as="geometry" />
        </mxCell>
        <mxCell id="tags-title" value="Tags Applied to Resources" style="text;html=1;strokeColor=none;fillColor=none;align=center;verticalAlign=middle;whiteSpace=wrap;rounded=0;fontSize=14;fontStyle=1;fontColor=#232F3E;fontFamily=Verdana;" parent="7H_VCyAWmfOhiCKqPhkO-2" vertex="1">
          <mxGeometry x="60" y="10" width="200" height="20" as="geometry" />
        </mxCell>
        <mxCell id="tag1" value="• Retention: 90days" style="text;html=1;strokeColor=none;fillColor=none;align=left;verticalAlign=middle;whiteSpace=wrap;rounded=0;fontSize=11;fontColor=#232F3E;fontStyle=1;fontFamily=Verdana;" parent="7H_VCyAWmfOhiCKqPhkO-2" vertex="1">
          <mxGeometry x="10" y="35" width="140" height="15" as="geometry" />
        </mxCell>
        <mxCell id="tag2" value="• DeleteOn: YYYY-MM-DD" style="text;html=1;strokeColor=none;fillColor=none;align=left;verticalAlign=middle;whiteSpace=wrap;rounded=0;fontSize=11;fontColor=#232F3E;fontStyle=1;fontFamily=Verdana;" parent="7H_VCyAWmfOhiCKqPhkO-2" vertex="1">
          <mxGeometry x="10" y="55" width="160" height="15" as="geometry" />
        </mxCell>
        <mxCell id="tag3" value="• BackupSource: AWS-Backup" style="text;html=1;strokeColor=none;fillColor=none;align=left;verticalAlign=middle;whiteSpace=wrap;rounded=0;fontSize=11;fontColor=#232F3E;fontStyle=1;fontFamily=Verdana;" parent="7H_VCyAWmfOhiCKqPhkO-2" vertex="1">
          <mxGeometry x="10" y="75" width="180" height="15" as="geometry" />
        </mxCell>
        <mxCell id="tag4" value="• BackupJobId: job-xxxxxxxxx" style="text;html=1;strokeColor=none;fillColor=none;align=left;verticalAlign=middle;whiteSpace=wrap;rounded=0;fontSize=11;fontColor=#232F3E;fontStyle=1;fontFamily=Verdana;" parent="7H_VCyAWmfOhiCKqPhkO-2" vertex="1">
          <mxGeometry x="10" y="95" width="190" height="15" as="geometry" />
        </mxCell>
        <mxCell id="7H_VCyAWmfOhiCKqPhkO-4" value="" style="group;fontStyle=1;fontFamily=Verdana;" vertex="1" connectable="0" parent="1">
          <mxGeometry x="28" y="653" width="300" height="150" as="geometry" />
        </mxCell>
        <mxCell id="legend-box" value="" style="rounded=1;whiteSpace=wrap;html=1;strokeColor=#232F3E;fillColor=#F7F7F7;fontStyle=1;fontFamily=Verdana;" parent="7H_VCyAWmfOhiCKqPhkO-4" vertex="1">
          <mxGeometry width="300" height="150" as="geometry" />
        </mxCell>
        <mxCell id="legend-title" value="Legend" style="text;html=1;strokeColor=none;fillColor=none;align=center;verticalAlign=middle;whiteSpace=wrap;rounded=0;fontSize=14;fontStyle=1;fontColor=#232F3E;fontFamily=Verdana;" parent="7H_VCyAWmfOhiCKqPhkO-4" vertex="1">
          <mxGeometry x="125" y="10" width="60" height="20" as="geometry" />
        </mxCell>
        <mxCell id="legend-event-flow" value="Event Flow" style="text;html=1;strokeColor=none;fillColor=none;align=left;verticalAlign=middle;whiteSpace=wrap;rounded=0;fontSize=12;fontColor=#232F3E;fontStyle=1;fontFamily=Verdana;" parent="7H_VCyAWmfOhiCKqPhkO-4" vertex="1">
          <mxGeometry x="65" y="35" width="80" height="20" as="geometry" />
        </mxCell>
        <mxCell id="legend-event-line" value="" style="endArrow=classic;html=1;strokeColor=#FF6D01;strokeWidth=3;flowAnimation=1;fontStyle=1;fontFamily=Verdana;" parent="7H_VCyAWmfOhiCKqPhkO-4" edge="1">
          <mxGeometry width="50" height="50" relative="1" as="geometry">
            <mxPoint x="25" y="45" as="sourcePoint" />
            <mxPoint x="55" y="45" as="targetPoint" />
          </mxGeometry>
        </mxCell>
        <mxCell id="legend-api-flow" value="API Calls / Logs" style="text;html=1;strokeColor=none;fillColor=none;align=left;verticalAlign=middle;whiteSpace=wrap;rounded=0;fontSize=12;fontColor=#232F3E;fontStyle=1;fontFamily=Verdana;" parent="7H_VCyAWmfOhiCKqPhkO-4" vertex="1">
          <mxGeometry x="65" y="65" width="100" height="20" as="geometry" />
        </mxCell>
        <mxCell id="legend-api-line" value="" style="endArrow=classic;html=1;strokeColor=#232F3E;strokeWidth=3;flowAnimation=1;fontStyle=1;fontFamily=Verdana;" parent="7H_VCyAWmfOhiCKqPhkO-4" edge="1">
          <mxGeometry width="50" height="50" relative="1" as="geometry">
            <mxPoint x="25" y="75" as="sourcePoint" />
            <mxPoint x="55" y="75" as="targetPoint" />
          </mxGeometry>
        </mxCell>
        <mxCell id="legend-permission-flow" value="Permissions / Logs" style="text;html=1;strokeColor=none;fillColor=none;align=left;verticalAlign=middle;whiteSpace=wrap;rounded=0;fontSize=12;fontColor=#232F3E;fontStyle=1;fontFamily=Verdana;" parent="7H_VCyAWmfOhiCKqPhkO-4" vertex="1">
          <mxGeometry x="65" y="95" width="120" height="20" as="geometry" />
        </mxCell>
        <mxCell id="legend-permission-line" value="" style="endArrow=classic;html=1;strokeColor=#9AC7BF;strokeWidth=2;dashed=1;flowAnimation=1;fontStyle=1;fontFamily=Verdana;" parent="7H_VCyAWmfOhiCKqPhkO-4" edge="1">
          <mxGeometry width="50" height="50" relative="1" as="geometry">
            <mxPoint x="25" y="105" as="sourcePoint" />
            <mxPoint x="55" y="105" as="targetPoint" />
          </mxGeometry>
        </mxCell>
      </root>
    </mxGraphModel>
  </diagram>
</mxfile>
